<svg
  width="200px"
  height="200px"
  viewBox="0 0 24 24"
  fill="none"
  xmlns="http://www.w3.org/2000/svg"
>
  <path
    d="M12 2C10.8954 2 10 2.89543 10 4V5.5C10 6.88071 8.88071 8 7.5 8C6.11929 8 5 6.88071 5 5.5V4C5 2.89543 4.10457 2 3 2"
    stroke="#6B7280"
    stroke-width="2"
    stroke-linecap="round"
    stroke-linejoin="round"
  />
  <path
    d="M21 2C19.8954 2 19 2.89543 19 4V5.5C19 6.88071 17.8807 8 16.5 8C15.1193 8 14 6.88071 14 5.5V4C14 2.89543 13.1046 2 12 2"
    stroke="#6B7280"
    stroke-width="2"
    stroke-linecap="round"
    stroke-linejoin="round"
  />
  <path
    d="M9 10L12 14L15 10"
    stroke="#4B5563"
    stroke-width="2"
    stroke-linecap="round"
    stroke-linejoin="round"
  />
  <circle
    cx="12"
    cy="18"
    r="4"
    fill="#4B5563"
    stroke="#9CA3AF"
    stroke-width="2"
    stroke-linecap="round"
    stroke-linejoin="round"
  />
  <path
    d="M18 22C18 20 20 19 20 19C21 19 22 20 22 22H18Z"
    fill="#9CA3AF"
  />
  <path
    d="M6 22C6 20 4 19 4 19C3 19 2 20 2 22H6Z"
    fill="#9CA3AF"
  />
</svg>